<mxfile host="app.diagrams.net" agent="Mozilla/5.0 (Windows NT 10.0; Win64; x64) AppleWebKit/537.36 (KHTML, like Gecko) Chrome/127.0.0.0 Safari/537.36" version="24.7.7">
  <diagram name="Page-1" id="xWLZw0Ofq7Re0Qa0eeTw">
    <mxGraphModel dx="2049" dy="1103" grid="1" gridSize="10" guides="1" tooltips="1" connect="1" arrows="1" fold="1" page="1" pageScale="1" pageWidth="1169" pageHeight="827" math="0" shadow="0">
      <root>
        <mxCell id="0" />
        <mxCell id="1" parent="0" />
        <mxCell id="SSLxgvCpGCOq4GVA-i-U-71" value="" style="rounded=0;whiteSpace=wrap;html=1;fillColor=#fff2cc;strokeColor=#d6b656;" parent="1" vertex="1">
          <mxGeometry x="1440" y="120" width="120" height="680" as="geometry" />
        </mxCell>
        <mxCell id="SSLxgvCpGCOq4GVA-i-U-46" style="edgeStyle=orthogonalEdgeStyle;rounded=0;orthogonalLoop=1;jettySize=auto;html=1;entryX=0;entryY=0.5;entryDx=0;entryDy=0;" parent="1" source="SSLxgvCpGCOq4GVA-i-U-6" target="SSLxgvCpGCOq4GVA-i-U-42" edge="1">
          <mxGeometry relative="1" as="geometry" />
        </mxCell>
        <mxCell id="SSLxgvCpGCOq4GVA-i-U-67" style="edgeStyle=orthogonalEdgeStyle;rounded=0;orthogonalLoop=1;jettySize=auto;html=1;entryX=0;entryY=0.5;entryDx=0;entryDy=0;" parent="1" source="SSLxgvCpGCOq4GVA-i-U-6" target="SSLxgvCpGCOq4GVA-i-U-29" edge="1">
          <mxGeometry relative="1" as="geometry" />
        </mxCell>
        <mxCell id="SSLxgvCpGCOq4GVA-i-U-6" value="&lt;div style=&quot;line-height: 19px;&quot;&gt;&lt;font face=&quot;Consolas, Courier New, monospace&quot;&gt;&lt;span style=&quot;font-size: 14px; white-space: pre;&quot;&gt;prod&lt;/span&gt;&lt;/font&gt;&lt;br&gt;&lt;/div&gt;" style="rounded=0;whiteSpace=wrap;html=1;fillColor=#d5e8d4;strokeColor=#82b366;" parent="1" vertex="1">
          <mxGeometry x="520" y="120" width="120" height="40" as="geometry" />
        </mxCell>
        <mxCell id="SSLxgvCpGCOq4GVA-i-U-118" style="edgeStyle=orthogonalEdgeStyle;rounded=0;orthogonalLoop=1;jettySize=auto;html=1;" parent="1" source="SSLxgvCpGCOq4GVA-i-U-9" target="SSLxgvCpGCOq4GVA-i-U-37" edge="1">
          <mxGeometry relative="1" as="geometry" />
        </mxCell>
        <mxCell id="SSLxgvCpGCOq4GVA-i-U-9" value="" style="sketch=0;outlineConnect=0;fontColor=#232F3E;gradientColor=none;strokeColor=#232F3E;fillColor=#ffffff;dashed=0;verticalLabelPosition=bottom;verticalAlign=top;align=center;html=1;fontSize=12;fontStyle=0;aspect=fixed;shape=mxgraph.aws4.resourceIcon;resIcon=mxgraph.aws4.user;" parent="1" vertex="1">
          <mxGeometry x="40" y="120" width="40" height="40" as="geometry" />
        </mxCell>
        <mxCell id="SSLxgvCpGCOq4GVA-i-U-10" value="" style="sketch=0;points=[[0,0,0],[0.25,0,0],[0.5,0,0],[0.75,0,0],[1,0,0],[0,1,0],[0.25,1,0],[0.5,1,0],[0.75,1,0],[1,1,0],[0,0.25,0],[0,0.5,0],[0,0.75,0],[1,0.25,0],[1,0.5,0],[1,0.75,0]];outlineConnect=0;fontColor=#232F3E;fillColor=#C925D1;strokeColor=#ffffff;dashed=0;verticalLabelPosition=bottom;verticalAlign=top;align=center;html=1;fontSize=12;fontStyle=0;aspect=fixed;shape=mxgraph.aws4.resourceIcon;resIcon=mxgraph.aws4.dynamodb;" parent="1" vertex="1">
          <mxGeometry x="1480" y="320" width="40" height="40" as="geometry" />
        </mxCell>
        <mxCell id="SSLxgvCpGCOq4GVA-i-U-11" value="" style="sketch=0;points=[[0,0,0],[0.25,0,0],[0.5,0,0],[0.75,0,0],[1,0,0],[0,1,0],[0.25,1,0],[0.5,1,0],[0.75,1,0],[1,1,0],[0,0.25,0],[0,0.5,0],[0,0.75,0],[1,0.25,0],[1,0.5,0],[1,0.75,0]];outlineConnect=0;fontColor=#232F3E;fillColor=#E7157B;strokeColor=#ffffff;dashed=0;verticalLabelPosition=bottom;verticalAlign=top;align=center;html=1;fontSize=12;fontStyle=0;aspect=fixed;shape=mxgraph.aws4.resourceIcon;resIcon=mxgraph.aws4.sns;" parent="1" vertex="1">
          <mxGeometry x="1480" y="400" width="40" height="40" as="geometry" />
        </mxCell>
        <mxCell id="SSLxgvCpGCOq4GVA-i-U-12" value="" style="sketch=0;points=[[0,0,0],[0.25,0,0],[0.5,0,0],[0.75,0,0],[1,0,0],[0,1,0],[0.25,1,0],[0.5,1,0],[0.75,1,0],[1,1,0],[0,0.25,0],[0,0.5,0],[0,0.75,0],[1,0.25,0],[1,0.5,0],[1,0.75,0]];outlineConnect=0;fontColor=#232F3E;fillColor=#E7157B;strokeColor=#ffffff;dashed=0;verticalLabelPosition=bottom;verticalAlign=top;align=center;html=1;fontSize=12;fontStyle=0;aspect=fixed;shape=mxgraph.aws4.resourceIcon;resIcon=mxgraph.aws4.sqs;" parent="1" vertex="1">
          <mxGeometry x="1480" y="480" width="40" height="40" as="geometry" />
        </mxCell>
        <mxCell id="SSLxgvCpGCOq4GVA-i-U-13" value="" style="sketch=0;points=[[0,0,0],[0.25,0,0],[0.5,0,0],[0.75,0,0],[1,0,0],[0,1,0],[0.25,1,0],[0.5,1,0],[0.75,1,0],[1,1,0],[0,0.25,0],[0,0.5,0],[0,0.75,0],[1,0.25,0],[1,0.5,0],[1,0.75,0]];outlineConnect=0;fontColor=#232F3E;fillColor=#01A88D;strokeColor=#ffffff;dashed=0;verticalLabelPosition=bottom;verticalAlign=top;align=center;html=1;fontSize=12;fontStyle=0;aspect=fixed;shape=mxgraph.aws4.resourceIcon;resIcon=mxgraph.aws4.bedrock;" parent="1" vertex="1">
          <mxGeometry x="1480" y="560" width="40" height="40" as="geometry" />
        </mxCell>
        <mxCell id="SSLxgvCpGCOq4GVA-i-U-19" value="Gateway" style="rounded=0;whiteSpace=wrap;html=1;fillColor=#dae8fc;strokeColor=#6c8ebf;" parent="1" vertex="1">
          <mxGeometry x="120" y="40" width="360" height="40" as="geometry" />
        </mxCell>
        <mxCell id="SSLxgvCpGCOq4GVA-i-U-21" value="Stage" style="rounded=0;whiteSpace=wrap;html=1;fillColor=#d5e8d4;strokeColor=#82b366;" parent="1" vertex="1">
          <mxGeometry x="520" y="40" width="120" height="40" as="geometry" />
        </mxCell>
        <mxCell id="SSLxgvCpGCOq4GVA-i-U-160" style="edgeStyle=orthogonalEdgeStyle;rounded=0;orthogonalLoop=1;jettySize=auto;html=1;entryX=0;entryY=0.5;entryDx=0;entryDy=0;" parent="1" source="SSLxgvCpGCOq4GVA-i-U-29" target="SSLxgvCpGCOq4GVA-i-U-159" edge="1">
          <mxGeometry relative="1" as="geometry" />
        </mxCell>
        <mxCell id="SSLxgvCpGCOq4GVA-i-U-161" style="edgeStyle=orthogonalEdgeStyle;rounded=0;orthogonalLoop=1;jettySize=auto;html=1;" parent="1" source="SSLxgvCpGCOq4GVA-i-U-29" target="SSLxgvCpGCOq4GVA-i-U-158" edge="1">
          <mxGeometry relative="1" as="geometry" />
        </mxCell>
        <mxCell id="SSLxgvCpGCOq4GVA-i-U-29" value="post" style="rounded=0;whiteSpace=wrap;html=1;fillColor=#ffe6cc;strokeColor=#d79b00;" parent="1" vertex="1">
          <mxGeometry x="680" y="320" width="80" height="40" as="geometry" />
        </mxCell>
        <mxCell id="SSLxgvCpGCOq4GVA-i-U-34" value="resource" style="rounded=0;whiteSpace=wrap;html=1;fillColor=#ffe6cc;strokeColor=#d79b00;" parent="1" vertex="1">
          <mxGeometry x="680" y="40" width="320" height="40" as="geometry" />
        </mxCell>
        <mxCell id="SSLxgvCpGCOq4GVA-i-U-45" style="edgeStyle=orthogonalEdgeStyle;rounded=0;orthogonalLoop=1;jettySize=auto;html=1;entryX=0;entryY=0.5;entryDx=0;entryDy=0;" parent="1" source="SSLxgvCpGCOq4GVA-i-U-37" target="SSLxgvCpGCOq4GVA-i-U-6" edge="1">
          <mxGeometry relative="1" as="geometry" />
        </mxCell>
        <mxCell id="7Ie2D8BQiTMmm4zo3DZs-128" style="edgeStyle=orthogonalEdgeStyle;rounded=0;orthogonalLoop=1;jettySize=auto;html=1;entryX=0;entryY=0.5;entryDx=0;entryDy=0;" edge="1" parent="1" source="SSLxgvCpGCOq4GVA-i-U-37" target="7Ie2D8BQiTMmm4zo3DZs-87">
          <mxGeometry relative="1" as="geometry" />
        </mxCell>
        <mxCell id="SSLxgvCpGCOq4GVA-i-U-37" value="&lt;div style=&quot;font-family: Consolas, &amp;quot;Courier New&amp;quot;, monospace; font-size: 14px; line-height: 19px; white-space: pre;&quot;&gt;&lt;span style=&quot;background-color: rgb(218, 232, 252);&quot;&gt;&lt;font style=&quot;&quot; color=&quot;#000000&quot;&gt;aaaa123456.execute-api.us-east-1.&lt;/font&gt;&lt;font style=&quot;&quot; color=&quot;#000000&quot;&gt;amazonaws.com&lt;/font&gt;&lt;/span&gt;&lt;/div&gt;" style="rounded=0;whiteSpace=wrap;html=1;fillColor=#dae8fc;strokeColor=#6c8ebf;fontColor=#050505;" parent="1" vertex="1">
          <mxGeometry x="120" y="120" width="360" height="40" as="geometry" />
        </mxCell>
        <mxCell id="SSLxgvCpGCOq4GVA-i-U-38" value="method" style="rounded=0;whiteSpace=wrap;html=1;fillColor=#f8cecc;strokeColor=#b85450;" parent="1" vertex="1">
          <mxGeometry x="1040" y="40" width="80" height="40" as="geometry" />
        </mxCell>
        <mxCell id="SSLxgvCpGCOq4GVA-i-U-41" value="" style="sketch=0;points=[[0,0,0],[0.25,0,0],[0.5,0,0],[0.75,0,0],[1,0,0],[0,1,0],[0.25,1,0],[0.5,1,0],[0.75,1,0],[1,1,0],[0,0.25,0],[0,0.5,0],[0,0.75,0],[1,0.25,0],[1,0.5,0],[1,0.75,0]];outlineConnect=0;fontColor=#232F3E;fillColor=#C925D1;strokeColor=#ffffff;dashed=0;verticalLabelPosition=bottom;verticalAlign=top;align=center;html=1;fontSize=12;fontStyle=0;aspect=fixed;shape=mxgraph.aws4.resourceIcon;resIcon=mxgraph.aws4.rds;" parent="1" vertex="1">
          <mxGeometry x="1480" y="240" width="40" height="40" as="geometry" />
        </mxCell>
        <mxCell id="SSLxgvCpGCOq4GVA-i-U-129" style="edgeStyle=orthogonalEdgeStyle;rounded=0;orthogonalLoop=1;jettySize=auto;html=1;" parent="1" source="SSLxgvCpGCOq4GVA-i-U-42" target="SSLxgvCpGCOq4GVA-i-U-121" edge="1">
          <mxGeometry relative="1" as="geometry" />
        </mxCell>
        <mxCell id="7Ie2D8BQiTMmm4zo3DZs-73" style="edgeStyle=orthogonalEdgeStyle;rounded=0;orthogonalLoop=1;jettySize=auto;html=1;entryX=0;entryY=0.5;entryDx=0;entryDy=0;" edge="1" parent="1" source="SSLxgvCpGCOq4GVA-i-U-42" target="7Ie2D8BQiTMmm4zo3DZs-68">
          <mxGeometry relative="1" as="geometry" />
        </mxCell>
        <mxCell id="SSLxgvCpGCOq4GVA-i-U-42" value="user" style="rounded=0;whiteSpace=wrap;html=1;fillColor=#ffe6cc;strokeColor=#d79b00;" parent="1" vertex="1">
          <mxGeometry x="680" y="120" width="80" height="40" as="geometry" />
        </mxCell>
        <mxCell id="7Ie2D8BQiTMmm4zo3DZs-80" style="edgeStyle=orthogonalEdgeStyle;rounded=0;orthogonalLoop=1;jettySize=auto;html=1;" edge="1" parent="1" source="SSLxgvCpGCOq4GVA-i-U-49" target="SSLxgvCpGCOq4GVA-i-U-164">
          <mxGeometry relative="1" as="geometry" />
        </mxCell>
        <mxCell id="SSLxgvCpGCOq4GVA-i-U-49" value="PUT" style="rounded=0;whiteSpace=wrap;html=1;fillColor=#f8cecc;strokeColor=#b85450;" parent="1" vertex="1">
          <mxGeometry x="1040" y="200" width="80" height="40" as="geometry" />
        </mxCell>
        <mxCell id="7Ie2D8BQiTMmm4zo3DZs-81" style="edgeStyle=orthogonalEdgeStyle;rounded=0;orthogonalLoop=1;jettySize=auto;html=1;" edge="1" parent="1" source="SSLxgvCpGCOq4GVA-i-U-50" target="SSLxgvCpGCOq4GVA-i-U-164">
          <mxGeometry relative="1" as="geometry" />
        </mxCell>
        <mxCell id="SSLxgvCpGCOq4GVA-i-U-50" value="DELETE" style="rounded=0;whiteSpace=wrap;html=1;fillColor=#f8cecc;strokeColor=#b85450;" parent="1" vertex="1">
          <mxGeometry x="1040" y="240" width="80" height="40" as="geometry" />
        </mxCell>
        <mxCell id="SSLxgvCpGCOq4GVA-i-U-255" style="edgeStyle=orthogonalEdgeStyle;rounded=0;orthogonalLoop=1;jettySize=auto;html=1;entryX=0;entryY=0.5;entryDx=0;entryDy=0;" parent="1" source="SSLxgvCpGCOq4GVA-i-U-56" target="SSLxgvCpGCOq4GVA-i-U-71" edge="1">
          <mxGeometry relative="1" as="geometry" />
        </mxCell>
        <mxCell id="SSLxgvCpGCOq4GVA-i-U-56" value="User Querier Lambda" style="rounded=0;whiteSpace=wrap;html=1;fillColor=#e1d5e7;strokeColor=#9673a6;" parent="1" vertex="1">
          <mxGeometry x="1200" y="120" width="160" height="40" as="geometry" />
        </mxCell>
        <mxCell id="SSLxgvCpGCOq4GVA-i-U-106" style="edgeStyle=orthogonalEdgeStyle;rounded=0;orthogonalLoop=1;jettySize=auto;html=1;entryX=0;entryY=0.5;entryDx=0;entryDy=0;" parent="1" source="SSLxgvCpGCOq4GVA-i-U-57" target="SSLxgvCpGCOq4GVA-i-U-71" edge="1">
          <mxGeometry relative="1" as="geometry" />
        </mxCell>
        <mxCell id="SSLxgvCpGCOq4GVA-i-U-72" value="" style="sketch=0;points=[[0,0,0],[0.25,0,0],[0.5,0,0],[0.75,0,0],[1,0,0],[0,1,0],[0.25,1,0],[0.5,1,0],[0.75,1,0],[1,1,0],[0,0.25,0],[0,0.5,0],[0,0.75,0],[1,0.25,0],[1,0.5,0],[1,0.75,0]];outlineConnect=0;fontColor=#232F3E;fillColor=#7AA116;strokeColor=#ffffff;dashed=0;verticalLabelPosition=bottom;verticalAlign=top;align=center;html=1;fontSize=12;fontStyle=0;aspect=fixed;shape=mxgraph.aws4.resourceIcon;resIcon=mxgraph.aws4.s3;" parent="1" vertex="1">
          <mxGeometry x="1480" y="160" width="40" height="40" as="geometry" />
        </mxCell>
        <mxCell id="SSLxgvCpGCOq4GVA-i-U-81" value="Back End Services" style="rounded=0;whiteSpace=wrap;html=1;fillColor=#fff2cc;strokeColor=#d6b656;" parent="1" vertex="1">
          <mxGeometry x="1440" y="40" width="120" height="40" as="geometry" />
        </mxCell>
        <mxCell id="SSLxgvCpGCOq4GVA-i-U-83" value="Integration" style="rounded=0;whiteSpace=wrap;html=1;fillColor=#e1d5e7;strokeColor=#9673a6;" parent="1" vertex="1">
          <mxGeometry x="1200" y="40" width="160" height="40" as="geometry" />
        </mxCell>
        <mxCell id="SSLxgvCpGCOq4GVA-i-U-85" value="" style="sketch=0;outlineConnect=0;fontColor=#232F3E;gradientColor=none;fillColor=#8C4FFF;strokeColor=none;dashed=0;verticalLabelPosition=bottom;verticalAlign=top;align=center;html=1;fontSize=12;fontStyle=0;aspect=fixed;pointerEvents=1;shape=mxgraph.aws4.application_load_balancer;" parent="1" vertex="1">
          <mxGeometry x="1480" y="640" width="40" height="40" as="geometry" />
        </mxCell>
        <mxCell id="7Ie2D8BQiTMmm4zo3DZs-69" style="edgeStyle=orthogonalEdgeStyle;rounded=0;orthogonalLoop=1;jettySize=auto;html=1;entryX=0;entryY=0.5;entryDx=0;entryDy=0;" edge="1" parent="1" source="SSLxgvCpGCOq4GVA-i-U-121" target="SSLxgvCpGCOq4GVA-i-U-152">
          <mxGeometry relative="1" as="geometry" />
        </mxCell>
        <mxCell id="7Ie2D8BQiTMmm4zo3DZs-70" style="edgeStyle=orthogonalEdgeStyle;rounded=0;orthogonalLoop=1;jettySize=auto;html=1;entryX=0;entryY=0.5;entryDx=0;entryDy=0;" edge="1" parent="1" source="SSLxgvCpGCOq4GVA-i-U-121" target="SSLxgvCpGCOq4GVA-i-U-155">
          <mxGeometry relative="1" as="geometry" />
        </mxCell>
        <mxCell id="7Ie2D8BQiTMmm4zo3DZs-71" style="edgeStyle=orthogonalEdgeStyle;rounded=0;orthogonalLoop=1;jettySize=auto;html=1;entryX=0;entryY=0.5;entryDx=0;entryDy=0;" edge="1" parent="1" source="SSLxgvCpGCOq4GVA-i-U-121" target="SSLxgvCpGCOq4GVA-i-U-49">
          <mxGeometry relative="1" as="geometry" />
        </mxCell>
        <mxCell id="7Ie2D8BQiTMmm4zo3DZs-72" style="edgeStyle=orthogonalEdgeStyle;rounded=0;orthogonalLoop=1;jettySize=auto;html=1;entryX=0;entryY=0.5;entryDx=0;entryDy=0;" edge="1" parent="1" source="SSLxgvCpGCOq4GVA-i-U-121" target="SSLxgvCpGCOq4GVA-i-U-50">
          <mxGeometry relative="1" as="geometry" />
        </mxCell>
        <mxCell id="SSLxgvCpGCOq4GVA-i-U-121" value="{PROXY+}" style="rounded=0;whiteSpace=wrap;html=1;fillColor=#ffe6cc;strokeColor=#d79b00;" parent="1" vertex="1">
          <mxGeometry x="800" y="120" width="80" height="40" as="geometry" />
        </mxCell>
        <mxCell id="7Ie2D8BQiTMmm4zo3DZs-78" style="edgeStyle=orthogonalEdgeStyle;rounded=0;orthogonalLoop=1;jettySize=auto;html=1;" edge="1" parent="1" source="SSLxgvCpGCOq4GVA-i-U-152" target="SSLxgvCpGCOq4GVA-i-U-56">
          <mxGeometry relative="1" as="geometry" />
        </mxCell>
        <mxCell id="SSLxgvCpGCOq4GVA-i-U-152" value="GET" style="rounded=0;whiteSpace=wrap;html=1;fillColor=#f8cecc;strokeColor=#b85450;" parent="1" vertex="1">
          <mxGeometry x="1040" y="120" width="80" height="40" as="geometry" />
        </mxCell>
        <mxCell id="7Ie2D8BQiTMmm4zo3DZs-82" style="edgeStyle=orthogonalEdgeStyle;rounded=0;orthogonalLoop=1;jettySize=auto;html=1;entryX=0;entryY=0.5;entryDx=0;entryDy=0;" edge="1" parent="1" source="SSLxgvCpGCOq4GVA-i-U-155" target="SSLxgvCpGCOq4GVA-i-U-164">
          <mxGeometry relative="1" as="geometry" />
        </mxCell>
        <mxCell id="SSLxgvCpGCOq4GVA-i-U-155" value="POST" style="rounded=0;whiteSpace=wrap;html=1;fillColor=#f8cecc;strokeColor=#b85450;" parent="1" vertex="1">
          <mxGeometry x="1040" y="160" width="80" height="40" as="geometry" />
        </mxCell>
        <mxCell id="7Ie2D8BQiTMmm4zo3DZs-83" style="edgeStyle=orthogonalEdgeStyle;rounded=0;orthogonalLoop=1;jettySize=auto;html=1;" edge="1" parent="1" source="SSLxgvCpGCOq4GVA-i-U-158" target="SSLxgvCpGCOq4GVA-i-U-174">
          <mxGeometry relative="1" as="geometry" />
        </mxCell>
        <mxCell id="SSLxgvCpGCOq4GVA-i-U-158" value="{PROXY+}" style="rounded=0;whiteSpace=wrap;html=1;fillColor=#ffe6cc;strokeColor=#d79b00;" parent="1" vertex="1">
          <mxGeometry x="800" y="320" width="80" height="40" as="geometry" />
        </mxCell>
        <mxCell id="SSLxgvCpGCOq4GVA-i-U-182" style="edgeStyle=orthogonalEdgeStyle;rounded=0;orthogonalLoop=1;jettySize=auto;html=1;entryX=0;entryY=0.5;entryDx=0;entryDy=0;" parent="1" source="SSLxgvCpGCOq4GVA-i-U-159" target="SSLxgvCpGCOq4GVA-i-U-181" edge="1">
          <mxGeometry relative="1" as="geometry" />
        </mxCell>
        <mxCell id="SSLxgvCpGCOq4GVA-i-U-159" value="write" style="rounded=0;whiteSpace=wrap;html=1;fillColor=#ffe6cc;strokeColor=#d79b00;" parent="1" vertex="1">
          <mxGeometry x="800" y="400" width="80" height="40" as="geometry" />
        </mxCell>
        <mxCell id="SSLxgvCpGCOq4GVA-i-U-235" style="edgeStyle=orthogonalEdgeStyle;rounded=0;orthogonalLoop=1;jettySize=auto;html=1;entryX=0;entryY=0.5;entryDx=0;entryDy=0;" parent="1" source="SSLxgvCpGCOq4GVA-i-U-164" target="SSLxgvCpGCOq4GVA-i-U-71" edge="1">
          <mxGeometry relative="1" as="geometry" />
        </mxCell>
        <mxCell id="SSLxgvCpGCOq4GVA-i-U-203" style="edgeStyle=orthogonalEdgeStyle;rounded=0;orthogonalLoop=1;jettySize=auto;html=1;" parent="1" source="SSLxgvCpGCOq4GVA-i-U-174" target="SSLxgvCpGCOq4GVA-i-U-57" edge="1">
          <mxGeometry relative="1" as="geometry" />
        </mxCell>
        <mxCell id="SSLxgvCpGCOq4GVA-i-U-174" value="GET" style="rounded=0;whiteSpace=wrap;html=1;fillColor=#f8cecc;strokeColor=#b85450;" parent="1" vertex="1">
          <mxGeometry x="1040" y="320" width="80" height="40" as="geometry" />
        </mxCell>
        <mxCell id="SSLxgvCpGCOq4GVA-i-U-201" style="edgeStyle=orthogonalEdgeStyle;rounded=0;orthogonalLoop=1;jettySize=auto;html=1;" parent="1" source="SSLxgvCpGCOq4GVA-i-U-181" target="SSLxgvCpGCOq4GVA-i-U-189" edge="1">
          <mxGeometry relative="1" as="geometry" />
        </mxCell>
        <mxCell id="SSLxgvCpGCOq4GVA-i-U-181" value="POST" style="rounded=0;whiteSpace=wrap;html=1;fillColor=#f8cecc;strokeColor=#b85450;" parent="1" vertex="1">
          <mxGeometry x="1040" y="400" width="80" height="40" as="geometry" />
        </mxCell>
        <mxCell id="SSLxgvCpGCOq4GVA-i-U-186" value="" style="sketch=0;points=[[0,0,0],[0.25,0,0],[0.5,0,0],[0.75,0,0],[1,0,0],[0,1,0],[0.25,1,0],[0.5,1,0],[0.75,1,0],[1,1,0],[0,0.25,0],[0,0.5,0],[0,0.75,0],[1,0.25,0],[1,0.5,0],[1,0.75,0]];outlineConnect=0;fontColor=#232F3E;fillColor=#ED7100;strokeColor=#ffffff;dashed=0;verticalLabelPosition=bottom;verticalAlign=top;align=center;html=1;fontSize=12;fontStyle=0;aspect=fixed;shape=mxgraph.aws4.resourceIcon;resIcon=mxgraph.aws4.lambda;" parent="1" vertex="1">
          <mxGeometry x="1480" y="720" width="40" height="40" as="geometry" />
        </mxCell>
        <mxCell id="SSLxgvCpGCOq4GVA-i-U-193" value="" style="edgeStyle=orthogonalEdgeStyle;rounded=0;orthogonalLoop=1;jettySize=auto;html=1;" parent="1" source="SSLxgvCpGCOq4GVA-i-U-189" target="SSLxgvCpGCOq4GVA-i-U-71" edge="1">
          <mxGeometry relative="1" as="geometry" />
        </mxCell>
        <mxCell id="SSLxgvCpGCOq4GVA-i-U-189" value="Pending Posts SQS Queue" style="rounded=0;whiteSpace=wrap;html=1;fillColor=#e1d5e7;strokeColor=#9673a6;" parent="1" vertex="1">
          <mxGeometry x="1200" y="400" width="160" height="40" as="geometry" />
        </mxCell>
        <mxCell id="SSLxgvCpGCOq4GVA-i-U-57" value="Posts Query Lambda" style="rounded=0;whiteSpace=wrap;html=1;fillColor=#e1d5e7;strokeColor=#9673a6;" parent="1" vertex="1">
          <mxGeometry x="1200" y="320" width="160" height="40" as="geometry" />
        </mxCell>
        <mxCell id="SSLxgvCpGCOq4GVA-i-U-164" value="User Manager Lambda" style="rounded=0;whiteSpace=wrap;html=1;fillColor=#e1d5e7;strokeColor=#9673a6;" parent="1" vertex="1">
          <mxGeometry x="1200" y="200" width="160" height="40" as="geometry" />
        </mxCell>
        <mxCell id="7Ie2D8BQiTMmm4zo3DZs-74" style="edgeStyle=orthogonalEdgeStyle;rounded=0;orthogonalLoop=1;jettySize=auto;html=1;entryX=0;entryY=0.5;entryDx=0;entryDy=0;" edge="1" parent="1" source="7Ie2D8BQiTMmm4zo3DZs-68" target="SSLxgvCpGCOq4GVA-i-U-152">
          <mxGeometry relative="1" as="geometry" />
        </mxCell>
        <mxCell id="7Ie2D8BQiTMmm4zo3DZs-75" style="edgeStyle=orthogonalEdgeStyle;rounded=0;orthogonalLoop=1;jettySize=auto;html=1;entryX=0;entryY=0.5;entryDx=0;entryDy=0;" edge="1" parent="1" source="7Ie2D8BQiTMmm4zo3DZs-68" target="SSLxgvCpGCOq4GVA-i-U-155">
          <mxGeometry relative="1" as="geometry" />
        </mxCell>
        <mxCell id="7Ie2D8BQiTMmm4zo3DZs-76" style="edgeStyle=orthogonalEdgeStyle;rounded=0;orthogonalLoop=1;jettySize=auto;html=1;entryX=0;entryY=0.5;entryDx=0;entryDy=0;" edge="1" parent="1" source="7Ie2D8BQiTMmm4zo3DZs-68" target="SSLxgvCpGCOq4GVA-i-U-49">
          <mxGeometry relative="1" as="geometry" />
        </mxCell>
        <mxCell id="7Ie2D8BQiTMmm4zo3DZs-77" style="edgeStyle=orthogonalEdgeStyle;rounded=0;orthogonalLoop=1;jettySize=auto;html=1;entryX=0;entryY=0.5;entryDx=0;entryDy=0;" edge="1" parent="1" source="7Ie2D8BQiTMmm4zo3DZs-68" target="SSLxgvCpGCOq4GVA-i-U-50">
          <mxGeometry relative="1" as="geometry" />
        </mxCell>
        <mxCell id="7Ie2D8BQiTMmm4zo3DZs-68" value="system" style="rounded=0;whiteSpace=wrap;html=1;fillColor=#ffe6cc;strokeColor=#d79b00;" vertex="1" parent="1">
          <mxGeometry x="800" y="200" width="80" height="40" as="geometry" />
        </mxCell>
        <mxCell id="7Ie2D8BQiTMmm4zo3DZs-85" style="edgeStyle=orthogonalEdgeStyle;rounded=0;orthogonalLoop=1;jettySize=auto;html=1;entryX=0;entryY=0.5;entryDx=0;entryDy=0;" edge="1" parent="1" source="7Ie2D8BQiTMmm4zo3DZs-87" target="7Ie2D8BQiTMmm4zo3DZs-93">
          <mxGeometry relative="1" as="geometry" />
        </mxCell>
        <mxCell id="7Ie2D8BQiTMmm4zo3DZs-86" style="edgeStyle=orthogonalEdgeStyle;rounded=0;orthogonalLoop=1;jettySize=auto;html=1;entryX=0;entryY=0.5;entryDx=0;entryDy=0;" edge="1" parent="1" source="7Ie2D8BQiTMmm4zo3DZs-87" target="7Ie2D8BQiTMmm4zo3DZs-90">
          <mxGeometry relative="1" as="geometry" />
        </mxCell>
        <mxCell id="7Ie2D8BQiTMmm4zo3DZs-87" value="&lt;div style=&quot;line-height: 19px;&quot;&gt;&lt;font face=&quot;Consolas, Courier New, monospace&quot;&gt;&lt;span style=&quot;font-size: 14px; white-space: pre;&quot;&gt;dev&lt;/span&gt;&lt;/font&gt;&lt;br&gt;&lt;/div&gt;" style="rounded=0;whiteSpace=wrap;html=1;fillColor=#d5e8d4;strokeColor=#82b366;" vertex="1" parent="1">
          <mxGeometry x="520" y="480" width="120" height="40" as="geometry" />
        </mxCell>
        <mxCell id="7Ie2D8BQiTMmm4zo3DZs-88" style="edgeStyle=orthogonalEdgeStyle;rounded=0;orthogonalLoop=1;jettySize=auto;html=1;entryX=0;entryY=0.5;entryDx=0;entryDy=0;" edge="1" parent="1" source="7Ie2D8BQiTMmm4zo3DZs-90" target="7Ie2D8BQiTMmm4zo3DZs-111">
          <mxGeometry relative="1" as="geometry" />
        </mxCell>
        <mxCell id="7Ie2D8BQiTMmm4zo3DZs-89" style="edgeStyle=orthogonalEdgeStyle;rounded=0;orthogonalLoop=1;jettySize=auto;html=1;" edge="1" parent="1" source="7Ie2D8BQiTMmm4zo3DZs-90" target="7Ie2D8BQiTMmm4zo3DZs-109">
          <mxGeometry relative="1" as="geometry" />
        </mxCell>
        <mxCell id="7Ie2D8BQiTMmm4zo3DZs-90" value="post" style="rounded=0;whiteSpace=wrap;html=1;fillColor=#ffe6cc;strokeColor=#d79b00;" vertex="1" parent="1">
          <mxGeometry x="680" y="680" width="80" height="40" as="geometry" />
        </mxCell>
        <mxCell id="7Ie2D8BQiTMmm4zo3DZs-91" style="edgeStyle=orthogonalEdgeStyle;rounded=0;orthogonalLoop=1;jettySize=auto;html=1;" edge="1" parent="1" source="7Ie2D8BQiTMmm4zo3DZs-93" target="7Ie2D8BQiTMmm4zo3DZs-103">
          <mxGeometry relative="1" as="geometry" />
        </mxCell>
        <mxCell id="7Ie2D8BQiTMmm4zo3DZs-92" style="edgeStyle=orthogonalEdgeStyle;rounded=0;orthogonalLoop=1;jettySize=auto;html=1;entryX=0;entryY=0.5;entryDx=0;entryDy=0;" edge="1" parent="1" source="7Ie2D8BQiTMmm4zo3DZs-93" target="7Ie2D8BQiTMmm4zo3DZs-123">
          <mxGeometry relative="1" as="geometry" />
        </mxCell>
        <mxCell id="7Ie2D8BQiTMmm4zo3DZs-93" value="user" style="rounded=0;whiteSpace=wrap;html=1;fillColor=#ffe6cc;strokeColor=#d79b00;" vertex="1" parent="1">
          <mxGeometry x="680" y="480" width="80" height="40" as="geometry" />
        </mxCell>
        <mxCell id="7Ie2D8BQiTMmm4zo3DZs-94" style="edgeStyle=orthogonalEdgeStyle;rounded=0;orthogonalLoop=1;jettySize=auto;html=1;" edge="1" parent="1" source="7Ie2D8BQiTMmm4zo3DZs-95" target="7Ie2D8BQiTMmm4zo3DZs-118">
          <mxGeometry relative="1" as="geometry" />
        </mxCell>
        <mxCell id="7Ie2D8BQiTMmm4zo3DZs-95" value="PUT" style="rounded=0;whiteSpace=wrap;html=1;fillColor=#f8cecc;strokeColor=#b85450;" vertex="1" parent="1">
          <mxGeometry x="1040" y="560" width="80" height="40" as="geometry" />
        </mxCell>
        <mxCell id="7Ie2D8BQiTMmm4zo3DZs-96" style="edgeStyle=orthogonalEdgeStyle;rounded=0;orthogonalLoop=1;jettySize=auto;html=1;" edge="1" parent="1" source="7Ie2D8BQiTMmm4zo3DZs-97" target="7Ie2D8BQiTMmm4zo3DZs-118">
          <mxGeometry relative="1" as="geometry" />
        </mxCell>
        <mxCell id="7Ie2D8BQiTMmm4zo3DZs-97" value="DELETE" style="rounded=0;whiteSpace=wrap;html=1;fillColor=#f8cecc;strokeColor=#b85450;" vertex="1" parent="1">
          <mxGeometry x="1040" y="600" width="80" height="40" as="geometry" />
        </mxCell>
        <mxCell id="7Ie2D8BQiTMmm4zo3DZs-124" style="edgeStyle=orthogonalEdgeStyle;rounded=0;orthogonalLoop=1;jettySize=auto;html=1;entryX=0;entryY=0.5;entryDx=0;entryDy=0;" edge="1" parent="1" source="7Ie2D8BQiTMmm4zo3DZs-98" target="SSLxgvCpGCOq4GVA-i-U-71">
          <mxGeometry relative="1" as="geometry" />
        </mxCell>
        <mxCell id="7Ie2D8BQiTMmm4zo3DZs-98" value="Dev User Querier Lambda" style="rounded=0;whiteSpace=wrap;html=1;fillColor=#e1d5e7;strokeColor=#9673a6;" vertex="1" parent="1">
          <mxGeometry x="1200" y="480" width="160" height="40" as="geometry" />
        </mxCell>
        <mxCell id="7Ie2D8BQiTMmm4zo3DZs-99" style="edgeStyle=orthogonalEdgeStyle;rounded=0;orthogonalLoop=1;jettySize=auto;html=1;entryX=0;entryY=0.5;entryDx=0;entryDy=0;" edge="1" parent="1" source="7Ie2D8BQiTMmm4zo3DZs-103" target="7Ie2D8BQiTMmm4zo3DZs-105">
          <mxGeometry relative="1" as="geometry" />
        </mxCell>
        <mxCell id="7Ie2D8BQiTMmm4zo3DZs-100" style="edgeStyle=orthogonalEdgeStyle;rounded=0;orthogonalLoop=1;jettySize=auto;html=1;entryX=0;entryY=0.5;entryDx=0;entryDy=0;" edge="1" parent="1" source="7Ie2D8BQiTMmm4zo3DZs-103" target="7Ie2D8BQiTMmm4zo3DZs-107">
          <mxGeometry relative="1" as="geometry" />
        </mxCell>
        <mxCell id="7Ie2D8BQiTMmm4zo3DZs-101" style="edgeStyle=orthogonalEdgeStyle;rounded=0;orthogonalLoop=1;jettySize=auto;html=1;entryX=0;entryY=0.5;entryDx=0;entryDy=0;" edge="1" parent="1" source="7Ie2D8BQiTMmm4zo3DZs-103" target="7Ie2D8BQiTMmm4zo3DZs-95">
          <mxGeometry relative="1" as="geometry" />
        </mxCell>
        <mxCell id="7Ie2D8BQiTMmm4zo3DZs-102" style="edgeStyle=orthogonalEdgeStyle;rounded=0;orthogonalLoop=1;jettySize=auto;html=1;entryX=0;entryY=0.5;entryDx=0;entryDy=0;" edge="1" parent="1" source="7Ie2D8BQiTMmm4zo3DZs-103" target="7Ie2D8BQiTMmm4zo3DZs-97">
          <mxGeometry relative="1" as="geometry" />
        </mxCell>
        <mxCell id="7Ie2D8BQiTMmm4zo3DZs-103" value="{PROXY+}" style="rounded=0;whiteSpace=wrap;html=1;fillColor=#ffe6cc;strokeColor=#d79b00;" vertex="1" parent="1">
          <mxGeometry x="800" y="480" width="80" height="40" as="geometry" />
        </mxCell>
        <mxCell id="7Ie2D8BQiTMmm4zo3DZs-104" style="edgeStyle=orthogonalEdgeStyle;rounded=0;orthogonalLoop=1;jettySize=auto;html=1;" edge="1" parent="1" source="7Ie2D8BQiTMmm4zo3DZs-105" target="7Ie2D8BQiTMmm4zo3DZs-98">
          <mxGeometry relative="1" as="geometry" />
        </mxCell>
        <mxCell id="7Ie2D8BQiTMmm4zo3DZs-105" value="GET" style="rounded=0;whiteSpace=wrap;html=1;fillColor=#f8cecc;strokeColor=#b85450;" vertex="1" parent="1">
          <mxGeometry x="1040" y="480" width="80" height="40" as="geometry" />
        </mxCell>
        <mxCell id="7Ie2D8BQiTMmm4zo3DZs-106" style="edgeStyle=orthogonalEdgeStyle;rounded=0;orthogonalLoop=1;jettySize=auto;html=1;entryX=0;entryY=0.5;entryDx=0;entryDy=0;" edge="1" parent="1" source="7Ie2D8BQiTMmm4zo3DZs-107" target="7Ie2D8BQiTMmm4zo3DZs-118">
          <mxGeometry relative="1" as="geometry" />
        </mxCell>
        <mxCell id="7Ie2D8BQiTMmm4zo3DZs-107" value="POST" style="rounded=0;whiteSpace=wrap;html=1;fillColor=#f8cecc;strokeColor=#b85450;" vertex="1" parent="1">
          <mxGeometry x="1040" y="520" width="80" height="40" as="geometry" />
        </mxCell>
        <mxCell id="7Ie2D8BQiTMmm4zo3DZs-108" style="edgeStyle=orthogonalEdgeStyle;rounded=0;orthogonalLoop=1;jettySize=auto;html=1;" edge="1" parent="1" source="7Ie2D8BQiTMmm4zo3DZs-109" target="7Ie2D8BQiTMmm4zo3DZs-113">
          <mxGeometry relative="1" as="geometry" />
        </mxCell>
        <mxCell id="7Ie2D8BQiTMmm4zo3DZs-109" value="{PROXY+}" style="rounded=0;whiteSpace=wrap;html=1;fillColor=#ffe6cc;strokeColor=#d79b00;" vertex="1" parent="1">
          <mxGeometry x="800" y="680" width="80" height="40" as="geometry" />
        </mxCell>
        <mxCell id="7Ie2D8BQiTMmm4zo3DZs-110" style="edgeStyle=orthogonalEdgeStyle;rounded=0;orthogonalLoop=1;jettySize=auto;html=1;entryX=0;entryY=0.5;entryDx=0;entryDy=0;" edge="1" parent="1" source="7Ie2D8BQiTMmm4zo3DZs-111" target="7Ie2D8BQiTMmm4zo3DZs-115">
          <mxGeometry relative="1" as="geometry" />
        </mxCell>
        <mxCell id="7Ie2D8BQiTMmm4zo3DZs-111" value="write" style="rounded=0;whiteSpace=wrap;html=1;fillColor=#ffe6cc;strokeColor=#d79b00;" vertex="1" parent="1">
          <mxGeometry x="800" y="760" width="80" height="40" as="geometry" />
        </mxCell>
        <mxCell id="7Ie2D8BQiTMmm4zo3DZs-112" style="edgeStyle=orthogonalEdgeStyle;rounded=0;orthogonalLoop=1;jettySize=auto;html=1;" edge="1" parent="1" source="7Ie2D8BQiTMmm4zo3DZs-113" target="7Ie2D8BQiTMmm4zo3DZs-117">
          <mxGeometry relative="1" as="geometry" />
        </mxCell>
        <mxCell id="7Ie2D8BQiTMmm4zo3DZs-113" value="GET" style="rounded=0;whiteSpace=wrap;html=1;fillColor=#f8cecc;strokeColor=#b85450;" vertex="1" parent="1">
          <mxGeometry x="1040" y="680" width="80" height="40" as="geometry" />
        </mxCell>
        <mxCell id="7Ie2D8BQiTMmm4zo3DZs-114" style="edgeStyle=orthogonalEdgeStyle;rounded=0;orthogonalLoop=1;jettySize=auto;html=1;" edge="1" parent="1" source="7Ie2D8BQiTMmm4zo3DZs-115" target="7Ie2D8BQiTMmm4zo3DZs-116">
          <mxGeometry relative="1" as="geometry" />
        </mxCell>
        <mxCell id="7Ie2D8BQiTMmm4zo3DZs-115" value="POST" style="rounded=0;whiteSpace=wrap;html=1;fillColor=#f8cecc;strokeColor=#b85450;" vertex="1" parent="1">
          <mxGeometry x="1040" y="760" width="80" height="40" as="geometry" />
        </mxCell>
        <mxCell id="7Ie2D8BQiTMmm4zo3DZs-127" style="edgeStyle=orthogonalEdgeStyle;rounded=0;orthogonalLoop=1;jettySize=auto;html=1;entryX=0;entryY=0.5;entryDx=0;entryDy=0;" edge="1" parent="1" source="7Ie2D8BQiTMmm4zo3DZs-116" target="SSLxgvCpGCOq4GVA-i-U-71">
          <mxGeometry relative="1" as="geometry" />
        </mxCell>
        <mxCell id="7Ie2D8BQiTMmm4zo3DZs-116" value="Dev Pending Posts SQS Queue" style="rounded=0;whiteSpace=wrap;html=1;fillColor=#e1d5e7;strokeColor=#9673a6;" vertex="1" parent="1">
          <mxGeometry x="1200" y="760" width="160" height="40" as="geometry" />
        </mxCell>
        <mxCell id="7Ie2D8BQiTMmm4zo3DZs-126" style="edgeStyle=orthogonalEdgeStyle;rounded=0;orthogonalLoop=1;jettySize=auto;html=1;entryX=0;entryY=0.5;entryDx=0;entryDy=0;" edge="1" parent="1" source="7Ie2D8BQiTMmm4zo3DZs-117" target="SSLxgvCpGCOq4GVA-i-U-71">
          <mxGeometry relative="1" as="geometry" />
        </mxCell>
        <mxCell id="7Ie2D8BQiTMmm4zo3DZs-117" value="Dev Posts Query Lambda" style="rounded=0;whiteSpace=wrap;html=1;fillColor=#e1d5e7;strokeColor=#9673a6;" vertex="1" parent="1">
          <mxGeometry x="1200" y="680" width="160" height="40" as="geometry" />
        </mxCell>
        <mxCell id="7Ie2D8BQiTMmm4zo3DZs-125" style="edgeStyle=orthogonalEdgeStyle;rounded=0;orthogonalLoop=1;jettySize=auto;html=1;entryX=0;entryY=0.5;entryDx=0;entryDy=0;" edge="1" parent="1" source="7Ie2D8BQiTMmm4zo3DZs-118" target="SSLxgvCpGCOq4GVA-i-U-71">
          <mxGeometry relative="1" as="geometry" />
        </mxCell>
        <mxCell id="7Ie2D8BQiTMmm4zo3DZs-118" value="Dev User Manager Lambda" style="rounded=0;whiteSpace=wrap;html=1;fillColor=#e1d5e7;strokeColor=#9673a6;" vertex="1" parent="1">
          <mxGeometry x="1200" y="560" width="160" height="40" as="geometry" />
        </mxCell>
        <mxCell id="7Ie2D8BQiTMmm4zo3DZs-119" style="edgeStyle=orthogonalEdgeStyle;rounded=0;orthogonalLoop=1;jettySize=auto;html=1;entryX=0;entryY=0.5;entryDx=0;entryDy=0;" edge="1" parent="1" source="7Ie2D8BQiTMmm4zo3DZs-123" target="7Ie2D8BQiTMmm4zo3DZs-105">
          <mxGeometry relative="1" as="geometry" />
        </mxCell>
        <mxCell id="7Ie2D8BQiTMmm4zo3DZs-120" style="edgeStyle=orthogonalEdgeStyle;rounded=0;orthogonalLoop=1;jettySize=auto;html=1;entryX=0;entryY=0.5;entryDx=0;entryDy=0;" edge="1" parent="1" source="7Ie2D8BQiTMmm4zo3DZs-123" target="7Ie2D8BQiTMmm4zo3DZs-107">
          <mxGeometry relative="1" as="geometry" />
        </mxCell>
        <mxCell id="7Ie2D8BQiTMmm4zo3DZs-121" style="edgeStyle=orthogonalEdgeStyle;rounded=0;orthogonalLoop=1;jettySize=auto;html=1;entryX=0;entryY=0.5;entryDx=0;entryDy=0;" edge="1" parent="1" source="7Ie2D8BQiTMmm4zo3DZs-123" target="7Ie2D8BQiTMmm4zo3DZs-95">
          <mxGeometry relative="1" as="geometry" />
        </mxCell>
        <mxCell id="7Ie2D8BQiTMmm4zo3DZs-122" style="edgeStyle=orthogonalEdgeStyle;rounded=0;orthogonalLoop=1;jettySize=auto;html=1;entryX=0;entryY=0.5;entryDx=0;entryDy=0;" edge="1" parent="1" source="7Ie2D8BQiTMmm4zo3DZs-123" target="7Ie2D8BQiTMmm4zo3DZs-97">
          <mxGeometry relative="1" as="geometry" />
        </mxCell>
        <mxCell id="7Ie2D8BQiTMmm4zo3DZs-123" value="system" style="rounded=0;whiteSpace=wrap;html=1;fillColor=#ffe6cc;strokeColor=#d79b00;" vertex="1" parent="1">
          <mxGeometry x="800" y="560" width="80" height="40" as="geometry" />
        </mxCell>
      </root>
    </mxGraphModel>
  </diagram>
</mxfile>
